<svg width="478" height="141" viewBox="0 0 478 141" fill="none" xmlns="http://www.w3.org/2000/svg">
<g clip-path="url(#clip0_8:379)">
<path d="M224.96 77.3461C224.799 77.0201 224.718 76.694 224.557 76.4495C223.266 73.5969 221.571 71.1518 219.473 69.0328C217.456 66.9952 215.197 65.3651 212.615 64.1426C212.131 63.8981 211.727 63.7351 211.243 63.4906C209.952 62.92 208.661 62.5125 207.289 62.1865C208.419 62.5125 209.549 62.92 210.678 63.3276C213.825 64.7131 216.569 66.5062 218.909 68.8698C221.249 71.2333 223.104 74.0044 224.395 77.1831C225.767 80.3617 226.413 83.7848 226.413 87.3709C226.413 90.957 225.767 94.2987 224.395 97.5588C223.024 100.737 221.249 103.508 218.909 105.872C216.569 108.236 213.825 110.11 210.678 111.414C207.532 112.8 204.143 113.452 200.592 113.452C198.494 113.452 196.396 113.207 194.46 112.718C196.639 113.289 198.817 113.615 201.157 113.615C204.707 113.615 208.016 112.963 211.243 111.577C214.39 110.192 217.133 108.399 219.473 106.035C221.813 103.672 223.669 100.9 224.96 97.7218C226.332 94.5432 226.978 91.1201 226.978 87.5339C226.978 83.9478 226.332 80.5247 224.96 77.3461Z" fill="white"/>
<path d="M224.96 77.3461C224.799 77.0201 224.718 76.694 224.557 76.4495C223.266 73.5969 221.571 71.1518 219.473 69.0328C217.456 66.9952 215.197 65.3651 212.615 64.1426C212.131 63.8981 211.727 63.7351 211.243 63.4906C209.952 62.92 208.661 62.5125 207.289 62.1865C208.419 62.5125 209.549 62.92 210.678 63.3276C213.825 64.7131 216.569 66.5062 218.909 68.8698C221.249 71.2333 223.104 74.0044 224.395 77.1831C225.767 80.3617 226.413 83.7848 226.413 87.3709C226.413 90.957 225.767 94.2987 224.395 97.5588C223.024 100.737 221.249 103.508 218.909 105.872C216.569 108.236 213.825 110.11 210.678 111.414C207.532 112.8 204.143 113.452 200.592 113.452C198.494 113.452 196.396 113.207 194.46 112.718C196.639 113.289 198.817 113.615 201.157 113.615C204.707 113.615 208.016 112.963 211.243 111.577C214.39 110.192 217.133 108.399 219.473 106.035C221.813 103.672 223.669 100.9 224.96 97.7218C226.332 94.5432 226.978 91.1201 226.978 87.5339C226.978 83.9478 226.332 80.5247 224.96 77.3461Z" fill="white"/>
<path d="M339.861 26.1624V80.2804C339.861 80.4434 339.861 80.6064 339.861 80.7694C339.619 90.2237 330.905 99.9226 318.237 103.916C303.309 108.643 288.462 103.835 285.073 92.9948C281.685 82.1549 291.125 69.6035 306.053 64.8763C308.957 63.9798 312.185 63.4093 315.493 63.1647C316.865 63.0832 318.237 63.0017 319.608 63.0832H319.85C320.092 63.0832 320.415 63.0832 320.657 63.0832H320.819C321.464 63.0832 322.11 63.1647 322.755 63.2463C323.078 63.2463 323.401 63.3278 323.723 63.3278C323.965 63.3278 324.288 63.4093 324.53 63.4093C324.853 63.4093 325.256 63.4908 325.579 63.5723C325.983 63.6538 326.386 63.7353 326.79 63.8168C327.193 63.8983 327.596 63.9798 328 64.0613C328.403 64.1428 328.807 64.2243 329.21 64.3873C329.21 64.3873 329.21 64.3873 329.291 64.3873C331.147 64.8763 332.922 63.4093 332.922 61.5347V39.9364C332.922 38.7139 332.196 37.5728 330.985 37.0838C329.533 36.5948 328.081 36.1058 326.547 35.6168C322.19 34.4757 317.672 33.8237 312.992 33.8237C305.649 33.8237 298.791 35.2093 292.335 37.9804C285.961 40.7514 280.313 44.5821 275.552 49.3908C270.792 54.1994 266.999 59.9046 264.256 66.3434C262.481 70.5815 261.19 75.0642 260.625 79.7098C260.302 82.1549 260.141 84.6 260.141 87.2081C260.141 89.8162 260.302 92.2613 260.625 94.7064C261.27 99.352 262.481 103.835 264.256 108.073C266.999 114.593 270.792 120.217 275.552 125.107C280.313 129.916 285.961 133.746 292.335 136.517C298.791 139.288 305.649 140.674 312.992 140.674C320.334 140.674 327.193 139.288 333.648 136.517C340.103 133.746 345.671 129.916 350.512 125.107C355.273 120.217 359.065 114.593 361.808 108.073C364.552 101.553 365.924 94.6249 365.924 87.2081V0C351.48 0 339.861 11.7364 339.861 26.1624Z" fill="white"/>
<path d="M378.027 33.9059H393.358C396.585 33.9059 399.248 36.5955 399.248 39.8556V87.3718C399.248 90.9579 399.894 94.2995 401.265 97.5596C402.637 100.738 404.412 103.509 406.752 105.873C409.092 108.237 411.836 110.111 414.982 111.415C418.129 112.801 421.518 113.453 425.068 113.453C428.619 113.453 431.927 112.801 435.155 111.415C438.301 110.03 441.045 108.237 443.385 105.873C445.725 103.509 447.581 100.738 448.872 97.5596C450.243 94.381 450.889 90.9579 450.889 87.3718V56.5637C450.889 53.3036 453.552 50.614 456.779 50.614H472.11C475.338 50.614 478 53.3036 478 56.5637V87.2903C478 94.707 476.629 101.635 473.885 108.155C471.142 114.675 467.349 120.299 462.589 125.189C457.747 129.998 452.18 133.828 445.725 136.6C439.27 139.371 432.411 140.756 425.068 140.756C417.726 140.756 410.867 139.371 404.412 136.6C397.957 133.828 392.39 129.998 387.548 125.189C382.788 120.38 378.995 114.675 376.252 108.155C373.508 101.635 372.137 94.707 372.137 87.2903V39.7741C372.137 36.514 374.719 33.9059 378.027 33.9059Z" fill="white"/>
<path d="M0 76.4503C0 70.5821 1.12964 65.1214 3.38893 59.9868C5.64821 54.8521 8.71438 50.3694 12.5067 46.6203C16.2991 42.8712 20.8177 39.8556 25.9011 37.655C30.9845 35.4544 36.4713 34.3134 42.2002 34.3134C47.687 34.3134 52.9318 35.3729 57.7731 37.4105C62.211 39.285 66.2454 41.8116 69.7957 44.9902C70.3605 45.4793 71.2481 45.4793 71.8129 44.9902C75.2826 41.8931 79.2363 39.3665 83.7549 37.4105C88.6769 35.3729 93.9216 34.3134 99.4892 34.3134C105.299 34.3134 110.705 35.4544 115.788 37.655C120.872 39.8556 125.31 42.8712 129.183 46.6203C132.975 50.3694 136.041 54.8521 138.3 59.9868C140.56 65.1214 141.689 70.6636 141.689 76.4503V140.838C126.681 140.838 114.578 128.531 114.578 113.453V74.3313C113.852 70.5821 112.157 67.5665 109.414 65.1214C106.267 62.3503 102.555 61.2093 98.0368 61.5353C95.2934 61.7798 92.7113 62.7579 90.5327 64.4694C86.821 67.322 84.8038 71.0712 84.4811 75.6353V125.352C84.4811 128.612 81.8183 131.302 78.5908 131.302H63.0986C59.871 131.302 57.289 128.694 57.289 125.434V76.5319C57.1276 72.4567 55.6752 69.0336 52.8511 66.0995C50.027 63.1654 46.1539 61.5353 42.1195 61.5353C38.3271 61.5353 35.0189 62.7579 32.1948 65.2029C29.3707 67.648 27.6762 70.6636 27.1114 74.4128V113.697C27.1114 128.694 15.0081 141.001 0 141.001" fill="white"/>
<path d="M249.409 66.507C248.44 64.225 247.391 62.1059 246.181 60.0683C243.922 56.2377 241.259 52.7331 238.112 49.5544C235.288 46.7833 232.303 44.2568 228.914 42.1377C226.493 40.5891 223.992 39.2851 221.248 38.0625C219.231 37.166 217.214 36.4325 215.116 35.862C214.793 35.7805 214.47 35.6989 214.148 35.6174C209.79 34.4764 205.272 33.9059 200.592 33.9059C193.249 33.9059 186.391 35.2914 179.936 38.0625C173.481 40.8336 167.913 44.6643 163.072 49.4729C158.311 54.3631 154.519 59.9868 151.775 66.507C150.807 68.8706 149.919 71.3157 149.274 73.8423C148.548 76.7764 148.064 79.792 147.822 82.8076C147.66 84.2747 147.66 85.8232 147.66 87.3718C147.66 94.7885 149.032 101.716 151.775 108.237C154.519 114.757 158.311 120.38 163.072 125.271C167.913 130.161 173.481 133.91 179.936 136.681C182.437 137.741 185.019 138.637 187.601 139.289C191.716 140.349 196.073 140.838 200.511 140.838C201.48 140.838 202.448 140.838 203.335 140.756C205.837 140.593 208.338 140.349 210.759 139.86C214.309 139.126 217.779 138.067 221.087 136.681C227.542 133.91 233.11 130.079 237.951 125.271C242.712 120.462 246.504 114.757 249.247 108.237C251.991 101.716 253.362 94.7885 253.362 87.3718C253.524 79.955 252.152 72.9458 249.409 66.507ZM224.96 97.6412C223.588 100.82 221.813 103.672 219.473 105.954C217.133 108.318 214.39 110.193 211.243 111.497C208.096 112.882 204.707 113.534 201.157 113.534C198.817 113.534 196.638 113.29 194.46 112.638C193.088 112.312 191.797 111.904 190.506 111.334C190.345 111.252 190.183 111.171 189.941 111.089C186.956 109.785 184.454 107.992 182.195 105.791C180.258 103.754 178.645 101.472 177.354 98.8637C177.112 98.3747 176.869 97.8857 176.708 97.3966C175.336 94.218 174.691 90.7949 174.691 87.2088C174.691 83.6227 175.336 80.281 176.708 77.0209C178.08 73.8423 179.855 70.9897 182.195 68.7076C184.535 66.344 187.278 64.4695 190.425 63.1654C193.572 61.7799 196.961 61.1279 200.511 61.1279C202.771 61.1279 205.03 61.3724 207.208 62.0244C208.58 62.3504 209.871 62.7579 211.162 63.3284C211.646 63.4914 212.13 63.7359 212.534 63.9805C215.116 65.2845 217.456 66.9146 219.392 68.8706C221.49 70.9897 223.185 73.4348 224.476 76.2874C224.637 76.6134 224.718 76.9394 224.879 77.1839C226.251 80.3625 226.897 83.7857 226.897 87.3718C226.897 90.9579 226.332 94.381 224.96 97.6412Z" fill="white"/>
</g>
<defs>
<clipPath id="clip0_8:379">
<rect width="478" height="141" fill="white"/>
</clipPath>
</defs>
</svg>
